<mxfile host="Electron" modified="2024-05-14T17:00:09.942Z" agent="Mozilla/5.0 (Windows NT 10.0; Win64; x64) AppleWebKit/537.36 (KHTML, like Gecko) draw.io/24.2.5 Chrome/120.0.6099.109 Electron/28.1.0 Safari/537.36" etag="r-JO8y8sMyfIHZ0JXfBO" version="24.2.5" type="device">
  <diagram name="Page-1" id="gVDLLq2lqUc2_YSkELXJ">
    <mxGraphModel dx="2314" dy="2345" grid="1" gridSize="10" guides="1" tooltips="1" connect="1" arrows="1" fold="1" page="1" pageScale="1" pageWidth="850" pageHeight="1100" math="0" shadow="0">
      <root>
        <mxCell id="0" />
        <mxCell id="1" parent="0" />
        <mxCell id="mh0T9uJOjv0VKQ7Ak3r--2" value="" style="rounded=0;whiteSpace=wrap;html=1;" parent="1" vertex="1">
          <mxGeometry x="480" y="-270" width="1160" height="830" as="geometry" />
        </mxCell>
        <mxCell id="mh0T9uJOjv0VKQ7Ak3r--9" value="" style="ellipse;shape=cloud;whiteSpace=wrap;html=1;" parent="1" vertex="1">
          <mxGeometry x="500" y="-260" width="1110" height="800" as="geometry" />
        </mxCell>
        <mxCell id="VcnzZNmp37M3qUAVi7Wm-7" style="edgeStyle=orthogonalEdgeStyle;rounded=0;orthogonalLoop=1;jettySize=auto;html=1;exitX=1;exitY=0.5;exitDx=0;exitDy=0;entryX=0.5;entryY=0;entryDx=0;entryDy=0;" edge="1" parent="1" source="mh0T9uJOjv0VKQ7Ak3r--11" target="VcnzZNmp37M3qUAVi7Wm-6">
          <mxGeometry relative="1" as="geometry" />
        </mxCell>
        <mxCell id="mh0T9uJOjv0VKQ7Ak3r--11" value="&lt;div&gt;FinScan&lt;/div&gt;" style="rounded=1;whiteSpace=wrap;html=1;" parent="1" vertex="1">
          <mxGeometry x="780" y="-40" width="110" height="90" as="geometry" />
        </mxCell>
        <mxCell id="mh0T9uJOjv0VKQ7Ak3r--1" value="" style="rounded=0;whiteSpace=wrap;html=1;" parent="1" vertex="1">
          <mxGeometry x="40" y="-240" width="400" height="520" as="geometry" />
        </mxCell>
        <mxCell id="mh0T9uJOjv0VKQ7Ak3r--3" value="Front End" style="text;html=1;align=center;verticalAlign=middle;whiteSpace=wrap;rounded=0;" parent="1" vertex="1">
          <mxGeometry x="40" y="-240" width="400" height="40" as="geometry" />
        </mxCell>
        <mxCell id="mh0T9uJOjv0VKQ7Ak3r--4" value="Back End" style="text;html=1;align=center;verticalAlign=middle;whiteSpace=wrap;rounded=0;" parent="1" vertex="1">
          <mxGeometry x="510" y="-240" width="400" height="40" as="geometry" />
        </mxCell>
        <mxCell id="mh0T9uJOjv0VKQ7Ak3r--5" value="" style="rounded=1;whiteSpace=wrap;html=1;" parent="1" vertex="1">
          <mxGeometry x="100" y="-90" width="190" height="320" as="geometry" />
        </mxCell>
        <mxCell id="mh0T9uJOjv0VKQ7Ak3r--6" value="User Device" style="text;html=1;align=center;verticalAlign=middle;whiteSpace=wrap;rounded=0;" parent="1" vertex="1">
          <mxGeometry x="100" y="-90" width="190" height="30" as="geometry" />
        </mxCell>
        <mxCell id="mh0T9uJOjv0VKQ7Ak3r--13" style="edgeStyle=orthogonalEdgeStyle;rounded=0;orthogonalLoop=1;jettySize=auto;html=1;exitX=1;exitY=0.5;exitDx=0;exitDy=0;entryX=0;entryY=0.5;entryDx=0;entryDy=0;" parent="1" source="mh0T9uJOjv0VKQ7Ak3r--7" target="mh0T9uJOjv0VKQ7Ak3r--11" edge="1">
          <mxGeometry relative="1" as="geometry">
            <Array as="points">
              <mxPoint x="255" y="10" />
              <mxPoint x="780" y="10" />
            </Array>
          </mxGeometry>
        </mxCell>
        <mxCell id="mh0T9uJOjv0VKQ7Ak3r--7" value="React Native UI" style="rounded=1;whiteSpace=wrap;html=1;" parent="1" vertex="1">
          <mxGeometry x="135" y="-40" width="120" height="90" as="geometry" />
        </mxCell>
        <mxCell id="mh0T9uJOjv0VKQ7Ak3r--10" value="AWS Cloud" style="text;html=1;align=center;verticalAlign=middle;whiteSpace=wrap;rounded=0;" parent="1" vertex="1">
          <mxGeometry x="960" y="-170" width="80" height="30" as="geometry" />
        </mxCell>
        <mxCell id="mh0T9uJOjv0VKQ7Ak3r--14" value="" style="rounded=0;whiteSpace=wrap;html=1;" parent="1" vertex="1">
          <mxGeometry x="475" y="600" width="685" height="520" as="geometry" />
        </mxCell>
        <mxCell id="mh0T9uJOjv0VKQ7Ak3r--15" value="External" style="text;html=1;align=center;verticalAlign=middle;whiteSpace=wrap;rounded=0;" parent="1" vertex="1">
          <mxGeometry x="600" y="600" width="400" height="40" as="geometry" />
        </mxCell>
        <mxCell id="mh0T9uJOjv0VKQ7Ak3r--16" value="EDGAR&lt;br&gt;Live" style="rounded=1;whiteSpace=wrap;html=1;" parent="1" vertex="1">
          <mxGeometry x="570" y="720" width="110" height="90" as="geometry" />
        </mxCell>
        <mxCell id="mh0T9uJOjv0VKQ7Ak3r--18" style="edgeStyle=orthogonalEdgeStyle;rounded=0;orthogonalLoop=1;jettySize=auto;html=1;exitX=0.5;exitY=1;exitDx=0;exitDy=0;entryX=0.5;entryY=0;entryDx=0;entryDy=0;" parent="1" source="mh0T9uJOjv0VKQ7Ak3r--17" target="mh0T9uJOjv0VKQ7Ak3r--16" edge="1">
          <mxGeometry relative="1" as="geometry" />
        </mxCell>
        <mxCell id="mh0T9uJOjv0VKQ7Ak3r--17" value="EDGARLive" style="rounded=1;whiteSpace=wrap;html=1;" parent="1" vertex="1">
          <mxGeometry x="710" y="290" width="120" height="60" as="geometry" />
        </mxCell>
        <mxCell id="mh0T9uJOjv0VKQ7Ak3r--19" value="EDGARCompute" style="rounded=1;whiteSpace=wrap;html=1;fillStyle=cross-hatch;fillColor=#1F1F1F;" parent="1" vertex="1">
          <mxGeometry x="1275" y="210" width="120" height="60" as="geometry" />
        </mxCell>
        <mxCell id="VcnzZNmp37M3qUAVi7Wm-4" style="edgeStyle=orthogonalEdgeStyle;rounded=0;orthogonalLoop=1;jettySize=auto;html=1;exitX=0.5;exitY=1;exitDx=0;exitDy=0;entryX=0.5;entryY=0;entryDx=0;entryDy=0;" edge="1" parent="1" source="VcnzZNmp37M3qUAVi7Wm-2" target="VcnzZNmp37M3qUAVi7Wm-3">
          <mxGeometry relative="1" as="geometry">
            <Array as="points">
              <mxPoint x="1160" y="530" />
              <mxPoint x="1050" y="530" />
              <mxPoint x="1050" y="720" />
            </Array>
          </mxGeometry>
        </mxCell>
        <mxCell id="VcnzZNmp37M3qUAVi7Wm-2" value="RSSParse" style="rounded=1;whiteSpace=wrap;html=1;" vertex="1" parent="1">
          <mxGeometry x="1100" y="410" width="120" height="60" as="geometry" />
        </mxCell>
        <mxCell id="VcnzZNmp37M3qUAVi7Wm-3" value="Finance RSS Feed" style="rounded=1;whiteSpace=wrap;html=1;" vertex="1" parent="1">
          <mxGeometry x="1005" y="720" width="110" height="90" as="geometry" />
        </mxCell>
        <mxCell id="VcnzZNmp37M3qUAVi7Wm-9" style="edgeStyle=orthogonalEdgeStyle;rounded=0;orthogonalLoop=1;jettySize=auto;html=1;exitX=0.625;exitY=1;exitDx=0;exitDy=0;entryX=0.5;entryY=0;entryDx=0;entryDy=0;" edge="1" parent="1" source="VcnzZNmp37M3qUAVi7Wm-6" target="VcnzZNmp37M3qUAVi7Wm-2">
          <mxGeometry relative="1" as="geometry" />
        </mxCell>
        <mxCell id="VcnzZNmp37M3qUAVi7Wm-17" style="edgeStyle=orthogonalEdgeStyle;rounded=0;orthogonalLoop=1;jettySize=auto;html=1;exitX=0.375;exitY=1;exitDx=0;exitDy=0;entryX=0.5;entryY=0;entryDx=0;entryDy=0;" edge="1" parent="1" source="VcnzZNmp37M3qUAVi7Wm-6" target="mh0T9uJOjv0VKQ7Ak3r--17">
          <mxGeometry relative="1" as="geometry" />
        </mxCell>
        <mxCell id="VcnzZNmp37M3qUAVi7Wm-18" style="edgeStyle=orthogonalEdgeStyle;rounded=0;orthogonalLoop=1;jettySize=auto;html=1;exitX=0.5;exitY=1;exitDx=0;exitDy=0;entryX=0.5;entryY=0;entryDx=0;entryDy=0;" edge="1" parent="1" source="VcnzZNmp37M3qUAVi7Wm-6" target="VcnzZNmp37M3qUAVi7Wm-12">
          <mxGeometry relative="1" as="geometry">
            <Array as="points">
              <mxPoint x="1030" y="250" />
              <mxPoint x="940" y="250" />
            </Array>
          </mxGeometry>
        </mxCell>
        <mxCell id="VcnzZNmp37M3qUAVi7Wm-6" value="IDataService" style="shape=hexagon;perimeter=hexagonPerimeter2;whiteSpace=wrap;html=1;fixedSize=1;" vertex="1" parent="1">
          <mxGeometry x="970" y="40" width="120" height="80" as="geometry" />
        </mxCell>
        <mxCell id="VcnzZNmp37M3qUAVi7Wm-15" style="edgeStyle=orthogonalEdgeStyle;rounded=0;orthogonalLoop=1;jettySize=auto;html=1;exitX=0.5;exitY=1;exitDx=0;exitDy=0;entryX=0.5;entryY=0;entryDx=0;entryDy=0;" edge="1" parent="1" source="VcnzZNmp37M3qUAVi7Wm-12" target="VcnzZNmp37M3qUAVi7Wm-14">
          <mxGeometry relative="1" as="geometry">
            <Array as="points">
              <mxPoint x="940" y="510" />
              <mxPoint x="835" y="510" />
            </Array>
          </mxGeometry>
        </mxCell>
        <mxCell id="VcnzZNmp37M3qUAVi7Wm-12" value="EDGARHistorical" style="rounded=1;whiteSpace=wrap;html=1;" vertex="1" parent="1">
          <mxGeometry x="880" y="300" width="120" height="60" as="geometry" />
        </mxCell>
        <mxCell id="VcnzZNmp37M3qUAVi7Wm-14" value="EDGAR&lt;br&gt;Historical" style="rounded=1;whiteSpace=wrap;html=1;" vertex="1" parent="1">
          <mxGeometry x="780" y="730" width="110" height="90" as="geometry" />
        </mxCell>
      </root>
    </mxGraphModel>
  </diagram>
</mxfile>
